<?xml version="1.0" standalone="no"?>
<!DOCTYPE svg PUBLIC "-//W3C//DTD SVG 20010904//EN"
 "http://www.w3.org/TR/2001/REC-SVG-20010904/DTD/svg10.dtd">
<svg version="1.0" xmlns="http://www.w3.org/2000/svg"
 width="482.000000pt" height="474.000000pt" viewBox="0 0 482.000000 474.000000"
 preserveAspectRatio="xMidYMid meet">

<g transform="translate(0.000000,474.000000) scale(0.100000,-0.100000)"
fill="#000000" stroke="none">
<path d="M2550 3544 c0 -18 23 -44 40 -44 6 0 8 -4 5 -10 -3 -5 -19 -10 -36
-10 -16 0 -29 5 -29 10 0 6 -22 10 -50 10 -27 0 -50 -4 -50 -10 0 -5 7 -10 16
-10 15 0 44 -23 44 -34 0 -4 -13 -5 -29 -4 -16 1 -27 6 -25 10 3 4 -38 8 -90
8 -53 0 -96 -3 -96 -6 0 -11 29 -34 44 -34 9 0 16 -4 16 -10 0 -5 6 -10 14
-10 8 0 18 -9 21 -20 3 -11 11 -20 16 -20 6 0 7 -4 4 -10 -3 -5 -18 -10 -33
-10 -16 0 -32 -8 -40 -20 -7 -11 -23 -20 -37 -20 -14 0 -25 -4 -25 -8 0 -18
26 -32 62 -32 21 0 38 -4 38 -10 0 -5 9 -10 20 -10 13 0 20 -7 20 -19 0 -16
-7 -19 -45 -19 -25 1 -48 -2 -51 -5 -13 -13 7 -37 31 -37 14 0 30 -9 37 -20 7
-11 19 -20 26 -20 7 0 22 -9 33 -19 l21 -19 -20 -11 c-12 -6 -55 -11 -96 -11
-76 0 -76 0 -77 -27 -3 -61 1 -58 -71 -55 -56 3 -69 1 -74 -13 -10 -25 10 -38
63 -39 60 -2 163 -49 163 -74 0 -9 -7 -26 -15 -36 -24 -31 -18 -36 38 -36 33
0 66 -7 90 -20 42 -23 69 -25 99 -9 12 6 49 12 82 13 67 1 123 -22 184 -76 19
-16 39 -27 45 -25 18 6 21 85 4 102 -13 13 -54 23 -120 30 -12 1 -23 3 -25 4
-1 0 4 15 13 31 15 30 47 40 60 20 9 -14 68 -13 83 2 21 21 13 57 -23 97 -41
45 -45 71 -11 71 23 0 23 2 18 68 -4 59 -2 70 13 75 9 4 21 4 26 1 5 -3 14 8
20 25 6 17 17 31 25 31 8 0 14 9 14 20 0 11 -4 20 -10 20 -5 0 -10 9 -10 20 0
19 10 25 35 21 6 -1 0 7 -13 17 -12 9 -22 26 -21 37 5 47 -1 65 -21 65 -13 0
-20 7 -20 20 0 22 -35 29 -43 8 -3 -9 -10 -7 -23 8 -30 33 -59 45 -74 31 -10
-9 -14 -9 -17 1 -3 6 -13 12 -24 12 -10 0 -19 5 -19 10 0 6 -12 10 -26 10 -14
0 -23 4 -19 10 3 6 -5 10 -19 10 -14 0 -28 5 -31 10 -10 15 -25 12 -25 -6z
m-130 -599 c0 -8 -13 -21 -30 -30 -28 -15 -33 -14 -80 10 -27 14 -50 28 -50
30 0 3 36 5 80 5 64 0 80 -3 80 -15z"/>
</g>
</svg>
